<svg width="24" height="24" viewBox="0 0 24 24" fill="none" xmlns="http://www.w3.org/2000/svg">
<g clip-path="url(#clip0_5_45)">
<path d="M5.59999 0V8M18.4 0V8M4.79999 12H9.59999M19.2 12H14.4M4.79999 16.8H9.59999M14.4 16.8H19.2M2.39999 4H21.6C22.0243 4 22.4313 4.16857 22.7314 4.46863C23.0314 4.76869 23.2 5.17565 23.2 5.6V21.6C23.2 22.0243 23.0314 22.4313 22.7314 22.7314C22.4313 23.0314 22.0243 23.2 21.6 23.2H2.39999C1.97564 23.2 1.56868 23.0314 1.26862 22.7314C0.968559 22.4313 0.799988 22.0243 0.799988 21.6V5.6C0.799988 5.17565 0.968559 4.76869 1.26862 4.46863C1.56868 4.16857 1.97564 4 2.39999 4V4Z" stroke="#052C73" stroke-width="2.33333"/>
</g>
<defs>
<clipPath id="clip0_5_45">
<rect width="24" height="24" fill="white"/>
</clipPath>
</defs>
</svg>
