<svg width="49" height="46" viewBox="0 0 49 46" fill="none" xmlns="http://www.w3.org/2000/svg">
<g clip-path="url(#clip0_12_47)">
<path d="M28.1038 11.5202V7.32967C31.2859 8.01257 33.9665 9.33181 36.1456 11.2874C38.3246 13.243 39.7946 15.7417 40.5556 18.7837H35.8862C34.7101 15.1209 32.116 12.6997 28.1038 11.5202ZM21.1515 11.5202V7.32967C14.1647 8.57131 9.91029 12.3893 8.3884 18.7837H13.0578C14.0955 15.2451 16.7934 12.8239 21.1515 11.5202ZM13.0578 24.5573H8.3884C9.08017 28.096 10.4464 30.7655 12.4871 32.5659C14.5278 34.3662 17.416 35.6079 21.1515 36.2908V32.1003C19.3529 31.6036 17.6927 30.6413 16.1708 29.2135C14.6489 27.7856 13.6112 26.2335 13.0578 24.5573ZM45.5363 21.8568C45.5363 27.1337 43.4783 31.6191 39.3623 35.313C35.2463 39.0069 30.2828 40.8538 24.472 40.8538C18.592 40.8538 13.594 39.0069 9.47794 35.313C5.36192 31.6191 3.30392 27.1337 3.30392 21.8568C3.30392 16.5798 5.36192 12.0789 9.47794 8.35402C13.594 4.62912 18.592 2.76667 24.472 2.76667C30.2828 2.76667 35.2463 4.62912 39.3623 8.35402C43.4783 12.0789 45.5363 16.5798 45.5363 21.8568ZM43.461 21.8568C43.461 17.1386 41.6105 13.1033 37.9096 9.75086C34.2086 6.39845 29.7294 4.72224 24.472 4.72224C19.2146 4.72224 14.7181 6.38293 10.9825 9.7043C7.24699 13.0257 5.37922 17.0765 5.37922 21.8568C5.37922 26.575 7.24699 30.6103 10.9825 33.9627C14.7181 37.3151 19.2146 38.9913 24.472 38.9913C29.7294 38.9913 34.2086 37.3151 37.9096 33.9627C41.6105 30.6103 43.461 26.575 43.461 21.8568ZM24.472 30.5172C21.7741 30.5172 19.4913 29.6636 17.6235 27.9563C15.7557 26.2491 14.8218 24.2159 14.8218 21.8568C14.8218 19.4356 15.7557 17.3869 17.6235 15.7107C19.4913 14.0345 21.7741 13.1654 24.472 13.1033C27.1007 13.1654 29.349 14.0345 31.2167 15.7107C33.0845 17.3869 34.053 19.4356 34.1221 21.8568C34.053 24.2159 33.0845 26.2491 31.2167 27.9563C29.349 29.6636 27.1007 30.5172 24.472 30.5172ZM31.9431 21.8568C31.9431 19.9943 31.2167 18.3957 29.764 17.061C28.3113 15.7262 26.5473 15.0588 24.472 15.0588C22.3967 15.0588 20.6154 15.7262 19.1281 17.061C17.6408 18.3957 16.8971 19.9943 16.8971 21.8568C16.8971 23.7192 17.6408 25.3023 19.1281 26.606C20.6154 27.9098 22.3967 28.5616 24.472 28.5616C26.5473 28.5616 28.3113 27.9098 29.764 26.606C31.2167 25.3023 31.9431 23.7192 31.9431 21.8568ZM28.1038 32.1003V36.2908C35.0214 34.8629 39.172 30.9518 40.5556 24.5573H35.8862C35.1944 26.2956 34.174 27.8632 32.8251 29.26C31.4761 30.6569 29.9024 31.6036 28.1038 32.1003ZM46.2627 32.9384C45.5709 32.9384 45.0002 33.1401 44.5505 33.5437C44.1009 33.9472 43.8761 34.4594 43.8761 35.0802C43.8761 35.6389 44.1009 36.1201 44.5505 36.5236C45.0002 36.9271 45.5709 37.1289 46.2627 37.1289C46.8853 37.1289 47.4214 36.9271 47.871 36.5236C48.3207 36.1201 48.5455 35.6389 48.5455 35.0802C48.5455 34.4594 48.3207 33.9472 47.871 33.5437C47.4214 33.1401 46.8853 32.9384 46.2627 32.9384ZM40.5556 38.3395C39.7255 38.3395 39.0164 38.6033 38.4284 39.131C37.8404 39.6587 37.5464 40.295 37.5464 41.04C37.5464 41.785 37.8404 42.4213 38.4284 42.949C39.0164 43.4767 39.7255 43.7406 40.5556 43.7406C41.3857 43.7406 42.0948 43.4767 42.6828 42.949C43.2708 42.4213 43.5648 41.785 43.5648 41.04C43.5648 40.295 43.2708 39.6587 42.6828 39.131C42.0948 38.6033 41.3857 38.3395 40.5556 38.3395ZM45.5363 26.0473C44.5678 26.0473 44.0836 26.4819 44.0836 27.351C44.0836 28.1581 44.5678 28.5616 45.5363 28.5616C46.4356 28.5616 46.8853 28.1581 46.8853 27.351C46.8853 26.4819 46.4356 26.0473 45.5363 26.0473ZM4.03027 40.3882C3.0618 40.3882 2.57756 40.8227 2.57756 41.6919C2.57756 42.6231 3.0618 43.0887 4.03027 43.0887C4.44533 43.0887 4.80851 42.949 5.1198 42.6697C5.4311 42.3903 5.58675 42.0644 5.58675 41.6919C5.58675 40.8227 5.06792 40.3882 4.03027 40.3882ZM3.61521 33.2177C2.64674 33.2177 2.1625 33.6523 2.1625 34.5215C2.1625 35.3906 2.64674 35.8252 3.61521 35.8252C3.96109 35.8252 4.28968 35.701 4.60098 35.4527C4.91227 35.2043 5.06792 34.8939 5.06792 34.5215C5.06792 34.149 4.91227 33.8386 4.60098 33.5902C4.28968 33.3419 3.96109 33.2177 3.61521 33.2177ZM8.28464 36.477C7.73123 36.477 7.26428 36.6633 6.88381 37.0358C6.50334 37.4082 6.3131 37.8118 6.3131 38.2464C6.3131 38.6809 6.50334 39.0845 6.88381 39.4569C7.26428 39.8294 7.73123 40.0157 8.28464 40.0157C8.83805 40.0157 9.305 39.8294 9.68547 39.4569C10.0659 39.0845 10.2562 38.6809 10.2562 38.2464C10.2562 37.8118 10.0659 37.4082 9.68547 37.0358C9.305 36.6633 8.83805 36.477 8.28464 36.477ZM46.2627 10.2165C45.5709 10.2165 45.225 10.5269 45.225 11.1477C45.225 11.7064 45.5709 11.9858 46.2627 11.9858C46.9544 11.9858 47.3003 11.7064 47.3003 11.1477C47.3003 10.5269 46.9544 10.2165 46.2627 10.2165ZM2.47379 6.39845C1.36697 6.39845 0.813553 6.92614 0.813553 7.98153C0.813553 8.97484 1.36697 9.47149 2.47379 9.47149C3.58062 9.47149 4.13404 8.97484 4.13404 7.98153C4.13404 6.92614 3.58062 6.39845 2.47379 6.39845ZM6.3131 0.811096C5.75969 0.811096 5.27545 0.997341 4.86039 1.36983C4.44533 1.74232 4.2378 2.20793 4.2378 2.76667C4.2378 3.26332 4.44533 3.69789 4.86039 4.07038C5.27545 4.44287 5.75969 4.62912 6.3131 4.62912C6.93569 4.62912 7.45452 4.44287 7.86958 4.07038C8.28464 3.69789 8.49217 3.26332 8.49217 2.76667C8.49217 2.20793 8.28464 1.74232 7.86958 1.36983C7.45452 0.997341 6.93569 0.811096 6.3131 0.811096ZM2.99262 12.6377C2.30085 12.6377 1.95497 12.9791 1.95497 13.662C1.95497 14.2828 2.30085 14.5932 2.99262 14.5932C3.75356 14.5932 4.13404 14.2828 4.13404 13.662C4.13404 12.9791 3.75356 12.6377 2.99262 12.6377Z" fill="#E4A951"/>
</g>
<defs>
<clipPath id="clip0_12_47">
<rect width="48.1477" height="45.4438" fill="white" transform="translate(0.813202 0.531738)"/>
</clipPath>
</defs>
</svg>
