<svg width="43" height="43" viewBox="0 0 43 43" fill="none" xmlns="http://www.w3.org/2000/svg">
<g clip-path="url(#clip0_12_37)">
<path d="M19.6816 15.659C20.074 15.7135 20.8694 15.8401 21.2582 15.9087C21.647 15.9773 22.1223 16.0904 22.5464 16.1981C25.2821 16.8701 27.8571 18.0786 30.1223 19.7534C30.5111 19.3613 30.9944 19.0759 31.5256 18.9248C32.0567 18.7737 32.6178 18.7619 33.1548 18.8906C34.0183 19.1392 34.7478 19.7204 35.183 20.5065C35.6182 21.2926 35.7236 22.2194 35.476 23.0832C35.2767 23.8809 34.8136 24.5879 34.1619 25.0892C34.4371 26.0181 34.4647 27.0028 34.2419 27.9456C33.0759 32.5396 25.9785 34.6275 18.3649 32.7027C10.7531 30.7707 5.51233 25.5437 6.6783 20.9498C6.93365 20.013 7.42788 19.1586 8.11259 18.4702C7.77988 17.721 7.70937 16.8815 7.91244 16.0873C8.10673 15.21 8.64131 14.4457 9.39875 13.9623C10.1562 13.4789 11.0746 13.3159 11.9521 13.5092V13.5092C12.4867 13.6519 12.9755 13.9299 13.3715 14.3163C13.7675 14.7027 14.0574 15.1846 14.2132 15.7155C16.0235 15.4306 17.8657 15.4116 19.6816 15.659V15.659Z" stroke="#052C73" stroke-width="2" stroke-linecap="round" stroke-linejoin="round"/>
<path d="M24.5838 11.7275C25.6026 11.9861 26.638 11.3698 26.8966 10.3511C27.1552 9.33231 26.5389 8.29682 25.5201 8.03825C24.5014 7.77968 23.4659 8.39594 23.2073 9.41471C22.9488 10.4335 23.565 11.469 24.5838 11.7275Z" stroke="#F08A8A" stroke-width="3" stroke-linecap="round" stroke-linejoin="round"/>
<path d="M23.3669 10.7717C20.8305 11.8732 22.2267 14.1083 24.0202 13.5329C25.1498 13.1726 26.2078 13.065 26.6004 14.0373C26.9931 15.0096 25.8588 16.1887 23.9067 16.5885M9.19153 22.8741C9.0488 23.4364 9.13531 24.0324 9.43202 24.531C9.72873 25.0295 10.2113 25.3898 10.7737 25.5325L14.788 26.5514C15.4252 26.7189 16.0997 26.6723 16.7077 26.4189C17.3158 26.1654 17.8237 25.7191 18.1532 25.1486L19.0466 23.5849C19.2214 23.265 19.496 23.011 19.8287 22.8618C20.1613 22.7126 20.5336 22.6763 20.8888 22.7586C21.2458 22.8475 21.5634 23.0519 21.7923 23.3399C22.0212 23.6279 22.1486 23.9834 22.1547 24.3512L22.1942 26.1517C22.2118 26.8102 22.4454 27.4447 22.8589 27.9575C23.2725 28.4703 23.8432 28.8329 24.4831 28.9895L28.4692 30.0012C29.0315 30.1439 29.6275 30.0574 30.1261 29.7607C30.6246 29.464 30.9849 28.9814 31.1276 28.4191L32.116 24.5248C32.2074 24.1702 32.162 23.7941 31.9888 23.4714C31.8157 23.1487 31.5274 22.903 31.1814 22.783C28.4118 21.8394 24.8905 20.893 21.5757 20.0818C18.2609 19.2705 14.7343 18.3454 11.8445 17.8752C11.4831 17.8156 11.1126 17.8941 10.8065 18.0952C10.5004 18.2963 10.2812 18.6052 10.1924 18.9604L9.19153 22.8741Z" stroke="#EDB5B5" stroke-width="0.729167" stroke-linecap="round" stroke-linejoin="round"/>
</g>
<defs>
<clipPath id="clip0_12_37">
<rect width="35" height="35" fill="white" transform="translate(8.61023) rotate(14.2414)"/>
</clipPath>
</defs>
</svg>
