<svg xmlns="http://www.w3.org/2000/svg" width="44" height="37" fill="none" viewBox="0 0 44 37"><g clip-path="url(#clip0_16_151)"><rect width="42.95" height="35.712" fill="#fff" transform="translate(0.76236 0.819611)"/><path fill="#052C73" d="M25.1069 9.45491V6.16178C27.9456 6.69843 30.3368 7.73516 32.2806 9.27196C34.2245 10.8088 35.5358 12.7724 36.2146 15.163H32.0492C31.0002 12.2846 28.6861 10.3819 25.1069 9.45491ZM18.9052 9.45491V6.16178C12.6725 7.13752 8.87743 10.1379 7.51983 15.163H11.6852C12.6108 12.3821 15.0175 10.4794 18.9052 9.45491ZM11.6852 19.7002H7.51983C8.13692 22.4811 9.35568 24.5789 11.1761 25.9938C12.9965 27.4086 15.5729 28.3843 18.9052 28.921V25.6278C17.3007 25.2376 15.8197 24.4814 14.4621 23.3592C13.1045 22.2371 12.1789 21.0175 11.6852 19.7002ZM40.6576 17.578C40.6576 21.7249 38.8218 25.2498 35.1501 28.1526C31.4784 31.0554 27.0508 32.5068 21.8672 32.5068C16.6219 32.5068 12.1634 31.0554 8.49175 28.1526C4.82006 25.2498 2.98421 21.7249 2.98421 17.578C2.98421 13.4311 4.82006 9.89399 8.49175 6.96676C12.1634 4.03953 16.6219 2.57592 21.8672 2.57592C27.0508 2.57592 31.4784 4.03953 35.1501 6.96676C38.8218 9.89399 40.6576 13.4311 40.6576 17.578ZM38.8064 17.578C38.8064 13.8701 37.1557 10.699 33.8542 8.06447C30.5528 5.42997 26.5571 4.11271 21.8672 4.11271C17.1773 4.11271 13.1662 5.41777 9.83393 8.02788C6.50163 10.638 4.83548 13.8214 4.83548 17.578C4.83548 21.2858 6.50163 24.457 9.83393 27.0915C13.1662 29.726 17.1773 31.0432 21.8672 31.0432C26.5571 31.0432 30.5528 29.726 33.8542 27.0915C37.1557 24.457 38.8064 21.2858 38.8064 17.578ZM21.8672 24.3838C19.4606 24.3838 17.4242 23.713 15.758 22.3713C14.0919 21.0297 13.2588 19.4319 13.2588 17.578C13.2588 15.6753 14.0919 14.0653 15.758 12.748C17.4242 11.4308 19.4606 10.7478 21.8672 10.699C24.2122 10.7478 26.2177 11.4308 27.8839 12.748C29.55 14.0653 30.4139 15.6753 30.4756 17.578C30.4139 19.4319 29.55 21.0297 27.8839 22.3713C26.2177 23.713 24.2122 24.3838 21.8672 24.3838ZM28.5318 17.578C28.5318 16.1144 27.8839 14.8581 26.588 13.8092C25.2921 12.7602 23.7185 12.2358 21.8672 12.2358C20.0159 12.2358 18.4269 12.7602 17.1002 13.8092C15.7734 14.8581 15.1101 16.1144 15.1101 17.578C15.1101 19.0416 15.7734 20.2857 17.1002 21.3102C18.4269 22.3347 20.0159 22.847 21.8672 22.847C23.7185 22.847 25.2921 22.3347 26.588 21.3102C27.8839 20.2857 28.5318 19.0416 28.5318 17.578ZM25.1069 25.6278V28.921C31.2779 27.7989 34.9804 24.7253 36.2146 19.7002H32.0492C31.4321 21.0663 30.5219 22.2981 29.3186 23.3958C28.1153 24.4935 26.7114 25.2376 25.1069 25.6278ZM41.3056 26.2865C40.6885 26.2865 40.1794 26.445 39.7783 26.7622C39.3772 27.0793 39.1766 27.4818 39.1766 27.9696C39.1766 28.4087 39.3772 28.7868 39.7783 29.1039C40.1794 29.4211 40.6885 29.5796 41.3056 29.5796C41.861 29.5796 42.3392 29.4211 42.7403 29.1039C43.1414 28.7868 43.342 28.4087 43.342 27.9696C43.342 27.4818 43.1414 27.0793 42.7403 26.7622C42.3392 26.445 41.861 26.2865 41.3056 26.2865ZM36.2146 30.531C35.4741 30.531 34.8416 30.7383 34.317 31.153C33.7925 31.5677 33.5302 32.0678 33.5302 32.6532C33.5302 33.2386 33.7925 33.7387 34.317 34.1534C34.8416 34.5681 35.4741 34.7754 36.2146 34.7754C36.9551 34.7754 37.5876 34.5681 38.1121 34.1534C38.6367 33.7387 38.8989 33.2386 38.8989 32.6532C38.8989 32.0678 38.6367 31.5677 38.1121 31.153C37.5876 30.7383 36.9551 30.531 36.2146 30.531ZM40.6576 20.8711C39.7937 20.8711 39.3618 21.2126 39.3618 21.8956C39.3618 22.5299 39.7937 22.847 40.6576 22.847C41.4599 22.847 41.861 22.5299 41.861 21.8956C41.861 21.2126 41.4599 20.8711 40.6576 20.8711ZM3.63216 32.1409C2.76823 32.1409 2.33626 32.4824 2.33626 33.1655C2.33626 33.8973 2.76823 34.2632 3.63216 34.2632C4.00241 34.2632 4.32638 34.1534 4.60407 33.9339C4.88177 33.7143 5.02061 33.4582 5.02061 33.1655C5.02061 32.4824 4.55779 32.1409 3.63216 32.1409ZM3.2619 26.506C2.39797 26.506 1.96601 26.8475 1.96601 27.5306C1.96601 28.2136 2.39797 28.5551 3.2619 28.5551C3.57045 28.5551 3.86357 28.4575 4.14126 28.2624C4.41895 28.0672 4.55779 27.8233 4.55779 27.5306C4.55779 27.2378 4.41895 26.9939 4.14126 26.7987C3.86357 26.6036 3.57045 26.506 3.2619 26.506ZM7.42727 29.0673C6.9336 29.0673 6.51706 29.2137 6.17766 29.5064C5.83826 29.7992 5.66856 30.1163 5.66856 30.4578C5.66856 30.7993 5.83826 31.1164 6.17766 31.4091C6.51706 31.7019 6.9336 31.8482 7.42727 31.8482C7.92094 31.8482 8.33748 31.7019 8.67688 31.4091C9.01628 31.1164 9.18598 30.7993 9.18598 30.4578C9.18598 30.1163 9.01628 29.7992 8.67688 29.5064C8.33748 29.2137 7.92094 29.0673 7.42727 29.0673ZM41.3056 8.43038C40.6885 8.43038 40.38 8.67431 40.38 9.16218C40.38 9.60127 40.6885 9.82081 41.3056 9.82081C41.9227 9.82081 42.2312 9.60127 42.2312 9.16218C42.2312 8.67431 41.9227 8.43038 41.3056 8.43038ZM2.2437 5.42997C1.25635 5.42997 0.76268 5.84466 0.76268 6.67404C0.76268 7.45463 1.25635 7.84493 2.2437 7.84493C3.23105 7.84493 3.72472 7.45463 3.72472 6.67404C3.72472 5.84466 3.23105 5.42997 2.2437 5.42997ZM5.66856 1.03912C5.17488 1.03912 4.74292 1.18549 4.37267 1.47821C4.00241 1.77093 3.81728 2.13683 3.81728 2.57592C3.81728 2.96622 4.00241 3.30773 4.37267 3.60045C4.74292 3.89317 5.17488 4.03953 5.66856 4.03953C6.22394 4.03953 6.68676 3.89317 7.05701 3.60045C7.42727 3.30773 7.6124 2.96622 7.6124 2.57592C7.6124 2.13683 7.42727 1.77093 7.05701 1.47821C6.68676 1.18549 6.22394 1.03912 5.66856 1.03912ZM2.70652 10.3331C2.08943 10.3331 1.78088 10.6014 1.78088 11.1381C1.78088 11.6259 2.08943 11.8699 2.70652 11.8699C3.38532 11.8699 3.72472 11.6259 3.72472 11.1381C3.72472 10.6014 3.38532 10.3331 2.70652 10.3331Z"/></g><defs><clipPath id="clip0_16_151"><rect width="42.95" height="35.712" fill="#fff" transform="translate(0.76236 0.819611)"/></clipPath></defs></svg>