<svg width="16" height="16" viewBox="0 0 16 16" fill="none" xmlns="http://www.w3.org/2000/svg">
<path d="M8.00002 3C4.66669 3 1.82002 5.07333 0.666687 8C1.82002 10.9267 4.66669 13 8.00002 13C8.24002 13 8.48002 13 8.72002 12.9667C8.68572 12.7573 8.66789 12.5455 8.66669 12.3333C8.66669 12.0933 8.69335 11.8533 8.73335 11.6133C8.49335 11.64 8.24669 11.6667 8.00002 11.6667C5.49335 11.6667 3.22002 10.24 2.12002 8C2.65886 6.8998 3.49556 5.97283 4.53501 5.3245C5.57445 4.67616 6.77495 4.33245 8.00002 4.33245C9.22509 4.33245 10.4256 4.67616 11.465 5.3245C12.5045 5.97283 13.3412 6.8998 13.88 8C13.8 8.16 13.7067 8.3 13.62 8.45333C14.06 8.56 14.48 8.74 14.86 9C15.04 8.66667 15.2 8.33333 15.3334 8C14.18 5.07333 11.3334 3 8.00002 3ZM8.00002 6C7.46959 6 6.96088 6.21071 6.58581 6.58579C6.21073 6.96086 6.00002 7.46957 6.00002 8C6.00002 8.53043 6.21073 9.03914 6.58581 9.41421C6.96088 9.78929 7.46959 10 8.00002 10C8.53045 10 9.03916 9.78929 9.41423 9.41421C9.78931 9.03914 10 8.53043 10 8C10 7.46957 9.78931 6.96086 9.41423 6.58579C9.03916 6.21071 8.53045 6 8.00002 6ZM12 9.66667V11.6667H10V13H12V15H13.3334V13H15.3334V11.6667H13.3334V9.66667H12Z" fill="white"/>
</svg>
