<svg xmlns="http://www.w3.org/2000/svg" width="24" height="24" fill="none" viewBox="0 0 24 24"><path stroke="#052C73" stroke-linecap="round" stroke-linejoin="round" stroke-width="2.917" d="M22 20V12.174C22.0001 11.6295 21.889 11.0908 21.6735 10.5907C21.458 10.0907 21.1428 9.63992 20.747 9.266L13.374 2.298C13.0027 1.94692 12.511 1.75131 12 1.75131C11.489 1.75131 10.9973 1.94692 10.626 2.298L3.253 9.266C2.85722 9.63992 2.54195 10.0907 2.3265 10.5907C2.11104 11.0908 1.99994 11.6295 2 12.174V20C2 20.5304 2.21071 21.0391 2.58579 21.4142C2.96086 21.7893 3.46957 22 4 22H20C20.5304 22 21.0391 21.7893 21.4142 21.4142C21.7893 21.0391 22 20.5304 22 20Z"/></svg>