<svg xmlns="http://www.w3.org/2000/svg" width="24" height="24" fill="none" viewBox="0 0 24 24"><path fill="#052C73" d="M20 4H4C2.9 4 2 4.9 2 6V18C2 19.1 2.9 20 4 20H13V18H4V8L10.94 12.34C11.59 12.75 12.41 12.75 13.06 12.34L20 8V13H22V6C22 4.9 21.1 4 20 4ZM12 11L4 6H20L12 11ZM19 16.21C19 15.76 19.54 15.54 19.85 15.86L22.64 18.65C22.84 18.85 22.84 19.16 22.64 19.36L19.85 22.15C19.7795 22.2191 19.6901 22.2658 19.5931 22.2842C19.4962 22.3026 19.3959 22.2918 19.305 22.2533C19.2141 22.2148 19.1366 22.1503 19.0823 22.0678C19.0281 21.9854 18.9994 21.8887 19 21.79V20H16C15.45 20 15 19.55 15 19C15 18.45 15.45 18 16 18H19V16.21Z"/></svg>