<svg width="237" height="46" viewBox="0 0 237 46" fill="none" xmlns="http://www.w3.org/2000/svg">
<path d="M24 26H26V31H24V26ZM20 21H22V31H20V21ZM11 31C9.67441 30.9984 8.40356 30.4711 7.46622 29.5338C6.52888 28.5964 6.00159 27.3256 6 26H8C8 26.5933 8.17595 27.1734 8.50559 27.6667C8.83524 28.1601 9.30377 28.5446 9.85195 28.7716C10.4001 28.9987 11.0033 29.0581 11.5853 28.9424C12.1672 28.8266 12.7018 28.5409 13.1213 28.1213C13.5409 27.7018 13.8266 27.1672 13.9424 26.5853C14.0581 26.0033 13.9987 25.4001 13.7716 24.8519C13.5446 24.3038 13.1601 23.8352 12.6667 23.5056C12.1734 23.1759 11.5933 23 11 23V21C12.3261 21 13.5979 21.5268 14.5355 22.4645C15.4732 23.4021 16 24.6739 16 26C16 27.3261 15.4732 28.5979 14.5355 29.5355C13.5979 30.4732 12.3261 31 11 31Z" fill="black" fill-opacity="0.7"/>
<path d="M28 7H4C3.46973 7.00053 2.96133 7.21141 2.58637 7.58637C2.21141 7.96133 2.00053 8.46973 2 9V33C2.00053 33.5303 2.21141 34.0387 2.58637 34.4136C2.96133 34.7886 3.46973 34.9995 4 35H28C28.5302 34.9992 29.0384 34.7882 29.4133 34.4133C29.7882 34.0384 29.9992 33.5302 30 33V9C29.9995 8.46973 29.7886 7.96133 29.4136 7.58637C29.0387 7.21141 28.5303 7.00053 28 7ZM28 16H14V9H28V16ZM12 9V16H4V9H12ZM4 33V18H28L28.002 33H4Z" fill="#0EA5E9"/>
<path d="M54.144 12.536V16.92H48.192V35H42.72V16.92H36.768V12.536H54.144ZM55.8023 26.04C55.8023 24.2053 56.1436 22.5947 56.8263 21.208C57.5303 19.8213 58.4796 18.7547 59.6743 18.008C60.8689 17.2613 62.2023 16.888 63.6743 16.888C64.9329 16.888 66.0316 17.144 66.9703 17.656C67.9303 18.168 68.6663 18.84 69.1783 19.672V17.144H74.6503V35H69.1783V32.472C68.6449 33.304 67.8983 33.976 66.9383 34.488C65.9996 35 64.9009 35.256 63.6423 35.256C62.1916 35.256 60.8689 34.8827 59.6743 34.136C58.4796 33.368 57.5303 32.2907 56.8263 30.904C56.1436 29.496 55.8023 27.8747 55.8023 26.04ZM69.1783 26.072C69.1783 24.7067 68.7943 23.6293 68.0263 22.84C67.2796 22.0507 66.3623 21.656 65.2743 21.656C64.1863 21.656 63.2583 22.0507 62.4903 22.84C61.7436 23.608 61.3703 24.6747 61.3703 26.04C61.3703 27.4053 61.7436 28.4933 62.4903 29.304C63.2583 30.0933 64.1863 30.488 65.2743 30.488C66.3623 30.488 67.2796 30.0933 68.0263 29.304C68.7943 28.5147 69.1783 27.4373 69.1783 26.072ZM85.873 35.256C84.3157 35.256 82.929 34.9893 81.713 34.456C80.497 33.9227 79.537 33.1973 78.833 32.28C78.129 31.3413 77.7343 30.296 77.649 29.144H83.057C83.121 29.7627 83.409 30.264 83.921 30.648C84.433 31.032 85.0623 31.224 85.809 31.224C86.4917 31.224 87.0143 31.096 87.377 30.84C87.761 30.5627 87.953 30.2107 87.953 29.784C87.953 29.272 87.6863 28.8987 87.153 28.664C86.6197 28.408 85.7557 28.1307 84.561 27.832C83.281 27.5333 82.2143 27.224 81.361 26.904C80.5077 26.5627 79.7717 26.04 79.153 25.336C78.5343 24.6107 78.225 23.64 78.225 22.424C78.225 21.4 78.5023 20.472 79.057 19.64C79.633 18.7867 80.465 18.1147 81.553 17.624C82.6623 17.1333 83.9743 16.888 85.489 16.888C87.729 16.888 89.489 17.4427 90.769 18.552C92.0703 19.6613 92.817 21.1333 93.009 22.968H87.953C87.8677 22.3493 87.5903 21.8587 87.121 21.496C86.673 21.1333 86.0757 20.952 85.329 20.952C84.689 20.952 84.1983 21.08 83.857 21.336C83.5157 21.5707 83.345 21.9013 83.345 22.328C83.345 22.84 83.6117 23.224 84.145 23.48C84.6997 23.736 85.553 23.992 86.705 24.248C88.0277 24.5893 89.105 24.9307 89.937 25.272C90.769 25.592 91.4943 26.1253 92.113 26.872C92.753 27.5973 93.0837 28.5787 93.105 29.816C93.105 30.8613 92.8063 31.8 92.209 32.632C91.633 33.4427 90.7903 34.0827 89.681 34.552C88.593 35.0213 87.3237 35.256 85.873 35.256ZM107.365 35L101.925 27.512V35H96.4528V11.32H101.925V24.408L107.333 17.144H114.085L106.661 26.104L114.149 35H107.365ZM141.674 12.536V35H136.202V21.528L131.178 35H126.762L121.706 21.496V35H116.234V12.536H122.698L129.002 28.088L135.242 12.536H141.674ZM148.361 15.288C147.401 15.288 146.612 15.0107 145.993 14.456C145.396 13.88 145.097 13.176 145.097 12.344C145.097 11.4907 145.396 10.7867 145.993 10.232C146.612 9.656 147.401 9.368 148.361 9.368C149.3 9.368 150.068 9.656 150.665 10.232C151.284 10.7867 151.593 11.4907 151.593 12.344C151.593 13.176 151.284 13.88 150.665 14.456C150.068 15.0107 149.3 15.288 148.361 15.288ZM151.081 17.144V35H145.609V17.144H151.081ZM165.927 16.952C168.017 16.952 169.681 17.6347 170.919 19C172.177 20.344 172.807 22.2 172.807 24.568V35H167.367V25.304C167.367 24.1093 167.057 23.1813 166.439 22.52C165.82 21.8587 164.988 21.528 163.943 21.528C162.897 21.528 162.065 21.8587 161.447 22.52C160.828 23.1813 160.519 24.1093 160.519 25.304V35H155.047V17.144H160.519V19.512C161.073 18.7227 161.82 18.104 162.759 17.656C163.697 17.1867 164.753 16.952 165.927 16.952ZM186.561 30.36V35H183.777C181.793 35 180.246 34.52 179.137 33.56C178.028 32.5787 177.473 30.9893 177.473 28.792V21.688H175.297V17.144H177.473V12.792H182.945V17.144H186.529V21.688H182.945V28.856C182.945 29.3893 183.073 29.7733 183.329 30.008C183.585 30.2427 184.012 30.36 184.609 30.36H186.561ZM206.441 25.784C206.441 26.296 206.409 26.8293 206.345 27.384H193.961C194.046 28.4933 194.398 29.3467 195.017 29.944C195.657 30.52 196.436 30.808 197.353 30.808C198.718 30.808 199.668 30.232 200.201 29.08H206.025C205.726 30.2533 205.182 31.3093 204.393 32.248C203.625 33.1867 202.654 33.9227 201.481 34.456C200.308 34.9893 198.996 35.256 197.545 35.256C195.796 35.256 194.238 34.8827 192.873 34.136C191.508 33.3893 190.441 32.3227 189.673 30.936C188.905 29.5493 188.521 27.928 188.521 26.072C188.521 24.216 188.894 22.5947 189.641 21.208C190.409 19.8213 191.476 18.7547 192.841 18.008C194.206 17.2613 195.774 16.888 197.545 16.888C199.273 16.888 200.809 17.2507 202.153 17.976C203.497 18.7013 204.542 19.736 205.289 21.08C206.057 22.424 206.441 23.992 206.441 25.784ZM200.841 24.344C200.841 23.4053 200.521 22.6587 199.881 22.104C199.241 21.5493 198.441 21.272 197.481 21.272C196.564 21.272 195.785 21.5387 195.145 22.072C194.526 22.6053 194.142 23.3627 193.993 24.344H200.841ZM214.8 20.12C215.44 19.1387 216.24 18.3707 217.2 17.816C218.16 17.24 219.226 16.952 220.4 16.952V22.744H218.896C217.53 22.744 216.506 23.0427 215.824 23.64C215.141 24.216 214.8 25.24 214.8 26.712V35H209.328V17.144H214.8V20.12Z" fill="black" fill-opacity="0.63"/>
</svg>
