<svg width="24" height="24" viewBox="0 0 24 24" fill="none" xmlns="http://www.w3.org/2000/svg">
<path d="M4.80001 6H0.936007C0.492007 6 0.0480076 6.384 0.108008 7.008L1.98001 18.996C1.98001 18.996 4.20001 10.164 4.63201 8.04C4.76401 7.404 5.36401 7.2 5.80801 7.2H12C12 7.2 11.16 4.704 11.076 4.428C10.932 3.9 10.668 3.6 10.14 3.6H6.16801C5.73601 3.6 5.32801 3.876 5.20801 4.368C5.10001 4.848 4.80001 6 4.80001 6ZM10.656 6H5.85601C5.85601 6 6.36001 4.8 6.90001 4.8H9.45601C10.032 4.8 10.656 6 10.656 6ZM3.20401 19.5C2.83201 20.064 2.29201 20.4 1.69201 20.4H20.568C21.216 20.4 21.672 20.028 21.804 19.404C22.332 16.776 23.82 9.276 23.82 9.276C23.904 8.676 23.46 8.4 23.076 8.4H19.2V6.636C19.2 6.444 18.888 6 18.408 6H13.896C13.272 6 12.852 6.696 12.852 6.696L12 8.4H6.70801C6.32401 8.4 5.95201 8.628 5.88001 9C5.88001 9 3.97201 17.04 3.81601 17.796C3.73201 18.24 3.55201 18.984 3.20401 19.5ZM18.456 8.4H13.2C13.2 8.4 13.896 7.2 14.556 7.2H17.304C18.156 7.2 18.456 8.4 18.456 8.4Z" fill="#052C73"/>
</svg>
