<svg xmlns="http://www.w3.org/2000/svg" width="16" height="16" fill="none" viewBox="0 0 16 16"><path fill="#fff" d="M10.3726 13.0555C10.3686 12.3212 10.1042 11.615 9.63107 11.0753L12.4855 5.82289C12.7058 5.8898 12.9339 5.92369 13.1632 5.92357C13.8102 5.92897 14.4393 5.69957 14.9444 5.274C15.4496 4.84844 15.8 4.2527 15.9366 3.58711C16.0732 2.92151 15.9877 2.22671 15.6944 1.61969C15.4012 1.01267 14.9182 0.530515 14.3267 0.254407C13.7352 -0.0217005 13.0714 -0.0748945 12.447 0.103779C11.8226 0.282453 11.2757 0.682082 10.8985 1.23538C10.5214 1.78867 10.3369 2.46184 10.3761 3.14153C10.4154 3.82122 10.676 4.46591 11.1141 4.96706L8.25969 10.2195C8.06321 10.1561 7.85921 10.1222 7.65373 10.1188L4.84717 4.95867C5.2752 4.46023 5.52735 3.82206 5.56133 3.1512C5.59531 2.48033 5.40905 1.81758 5.03378 1.27408C4.65852 0.73058 4.11709 0.339397 3.50028 0.166136C2.88347 -0.00712598 2.22881 0.0480718 1.64609 0.322471C1.06336 0.59687 0.58802 1.07378 0.299779 1.67322C0.0115373 2.27266 -0.0720718 2.95817 0.0629739 3.61479C0.19802 4.2714 0.543507 4.85918 1.04149 5.27954C1.53948 5.69991 2.15968 5.9273 2.79807 5.92358C3.02714 5.92074 3.25492 5.8869 3.47579 5.82289L6.06707 10.5971C5.6604 10.8737 5.32913 11.2569 5.10583 11.7091C4.88252 12.1612 4.77486 12.6667 4.79342 13.1759C4.81199 13.6851 4.95614 14.1805 5.21172 14.6133C5.46729 15.0461 5.82549 15.4015 6.2511 15.6445C6.67672 15.8875 7.1551 16.0098 7.63922 15.9994C8.12335 15.9889 8.59656 15.8461 9.01235 15.5849C9.42813 15.3237 9.77217 14.9532 10.0107 14.5097C10.2491 14.0662 10.3739 13.565 10.3726 13.0555ZM11.9672 2.98691C11.9672 2.73799 12.0374 2.49466 12.1688 2.28769C12.3002 2.08072 12.487 1.9194 12.7055 1.82415C12.924 1.72889 13.1645 1.70396 13.3965 1.75253C13.6285 1.80109 13.8416 1.92096 14.0089 2.09697C14.1761 2.27298 14.29 2.49724 14.3362 2.74138C14.3823 2.98552 14.3586 3.23857 14.2681 3.46855C14.1776 3.69852 14.0243 3.89508 13.8276 4.03337C13.631 4.17167 13.3997 4.24548 13.1632 4.24548C12.846 4.24548 12.5418 4.11288 12.3175 3.87686C12.0932 3.64083 11.9672 3.32071 11.9672 2.98691ZM1.60209 2.98691C1.60209 2.73799 1.67224 2.49466 1.80365 2.28769C1.93507 2.08072 2.12185 1.9194 2.34039 1.82415C2.55892 1.72889 2.7994 1.70396 3.03139 1.75253C3.26339 1.80109 3.47649 1.92096 3.64375 2.09697C3.81101 2.27298 3.92492 2.49724 3.97106 2.74138C4.01721 2.98552 3.99353 3.23857 3.90301 3.46855C3.81249 3.69852 3.65919 3.89508 3.46252 4.03337C3.26584 4.17167 3.03461 4.24548 2.79807 4.24548C2.48088 4.24548 2.17668 4.11288 1.95239 3.87686C1.7281 3.64083 1.60209 3.32071 1.60209 2.98691ZM6.38599 13.0555C6.38599 12.8065 6.45614 12.5632 6.58755 12.3562C6.71897 12.1493 6.90575 11.988 7.12429 11.8927C7.34282 11.7974 7.5833 11.7725 7.81529 11.8211C8.04729 11.8696 8.26039 11.9895 8.42765 12.1655C8.59491 12.3415 8.70882 12.5658 8.75496 12.8099C8.80111 13.0541 8.77743 13.3071 8.68691 13.5371C8.59638 13.7671 8.44309 13.9636 8.24642 14.1019C8.04974 14.2402 7.81851 14.314 7.58197 14.314C7.26478 14.314 6.96058 14.1814 6.73629 13.9454C6.512 13.7094 6.38599 13.3893 6.38599 13.0555Z"/></svg>