<svg width="16" height="16" viewBox="0 0 16 16" fill="none" xmlns="http://www.w3.org/2000/svg">
<path d="M14 12.1333L9.33334 11.0667L6.13334 14.6667L5.73334 9.86667L1.33334 8.00001L5.73334 6.13334L6.13334 1.33334L8.00001 3.46667L8.00001 4.00001C8.00001 4.46667 8.06668 4.93334 8.26668 5.40001L7.00001 3.93334L6.73334 6.86667L4.06668 8.00001L6.73334 9.13334L7.00001 12.0667L8.93334 9.86667L11.8 10.5333L10.2667 8.00001L10.4667 7.66667C10.8 7.80001 11.2 7.93334 11.5333 7.93334L14 12.1333ZM9.33334 4.66667L11.3333 4.66667L11.3333 6.66667L12.6667 6.66667L12.6667 4.66667L14.6667 4.66667L14.6667 3.33334L12.6667 3.33334L12.6667 1.33334L11.3333 1.33334L11.3333 3.33334L9.33334 3.33334L9.33334 4.66667Z" fill="white"/>
</svg>
