<svg xmlns="http://www.w3.org/2000/svg" width="24" height="24" fill="none" viewBox="0 0 24 24"><path fill="#052C73" d="M16.5 19.5C17.3284 19.5 18 18.8284 18 18C18 17.1716 17.3284 16.5 16.5 16.5C15.6716 16.5 15 17.1716 15 18C15 18.8284 15.6716 19.5 16.5 19.5Z"/><path fill="#052C73" d="M22.3328 17.6093C21.8693 16.4287 21.0697 15.41 20.0329 14.6796C18.9961 13.9491 17.7677 13.539 16.5 13.5C15.2323 13.539 14.0039 13.9491 12.9671 14.6796C11.9303 15.41 11.1307 16.4287 10.6672 17.6093L10.5 18L10.6672 18.3907C11.1307 19.5713 11.9303 20.59 12.9671 21.3204C14.0039 22.0509 15.2323 22.461 16.5 22.5C17.7677 22.461 18.9961 22.0509 20.0329 21.3204C21.0697 20.59 21.8693 19.5713 22.3328 18.3907L22.5 18L22.3328 17.6093ZM16.5 21C15.9067 21 15.3266 20.8241 14.8333 20.4944C14.3399 20.1648 13.9554 19.6962 13.7284 19.148C13.5013 18.5999 13.4419 17.9967 13.5576 17.4147C13.6734 16.8328 13.9591 16.2982 14.3787 15.8787C14.7982 15.4591 15.3328 15.1734 15.9147 15.0576C16.4967 14.9419 17.0999 15.0013 17.648 15.2284C18.1962 15.4554 18.6648 15.8399 18.9944 16.3333C19.3241 16.8266 19.5 17.4067 19.5 18C19.499 18.7953 19.1826 19.5578 18.6202 20.1202C18.0578 20.6826 17.2953 20.999 16.5 21Z"/><path fill="#052C73" d="M9 21H5.25V5.25H7.5V7.5H16.5V5.25H18.75V12H20.25V5.25C20.25 4.85218 20.092 4.47064 19.8107 4.18934C19.5294 3.90804 19.1478 3.75 18.75 3.75H16.5V3C16.5 2.60218 16.342 2.22064 16.0607 1.93934C15.7794 1.65804 15.3978 1.5 15 1.5H9C8.60218 1.5 8.22064 1.65804 7.93934 1.93934C7.65804 2.22064 7.5 2.60218 7.5 3V3.75H5.25C4.85218 3.75 4.47064 3.90804 4.18934 4.18934C3.90804 4.47064 3.75 4.85218 3.75 5.25V21C3.75 21.3978 3.90804 21.7794 4.18934 22.0607C4.47064 22.342 4.85218 22.5 5.25 22.5H9V21ZM9 3H15V6H9V3Z"/></svg>