<svg xmlns="http://www.w3.org/2000/svg" width="63" height="63" fill="none" viewBox="0 0 63 63"><g clip-path="url(#clip0_12_49)"><path fill="#EBB16E" d="M13.0539 29.2865C10.7924 34.0757 12.6023 40.9402 19.3052 45.093C18.4267 41.502 18.8117 37.718 20.3955 34.3776C21.5244 31.987 23.1643 30.0001 25.125 28.4896L19.5469 25.8555C18.4902 25.3565 17.2786 25.2977 16.1785 25.6921C15.0785 26.0864 14.1801 26.9017 13.6811 27.9584L13.0539 29.2865ZM28.4146 26.5248C31.9005 24.9658 35.8265 24.6937 39.4942 25.7568C40.5881 24.5666 41.2998 23.0757 41.5373 21.4767C41.7747 19.8777 41.5269 18.2443 40.826 16.7876C40.1251 15.331 39.0033 14.1181 37.6057 13.3058C36.2081 12.4936 34.5989 12.1194 32.9863 12.2315C31.3737 12.3437 29.8318 12.9371 28.56 13.935C27.2883 14.9329 26.3452 16.2893 25.8527 17.829C25.3602 19.3687 25.3409 21.0207 25.7974 22.5714C26.2539 24.1221 27.1652 25.5002 28.4133 26.5275L28.4146 26.5248ZM46.9578 46.9209C46.2165 48.4906 45.1734 49.8989 43.8878 51.0655C42.6023 52.232 41.0996 53.1339 39.4655 53.7197C37.8315 54.3055 36.098 54.5638 34.3641 54.4796C32.6303 54.3955 30.9299 53.9707 29.3602 53.2294C27.7905 52.4882 26.3822 51.445 25.2157 50.1595C24.0491 48.874 23.1472 47.3713 22.5614 45.7372C21.9756 44.1031 21.7174 42.3697 21.8015 40.6358C21.8856 38.9019 22.3105 37.2016 23.0517 35.6319C24.5487 32.4618 27.2437 30.0162 30.5439 28.8331C33.8441 27.65 37.4791 27.8264 40.6492 29.3234C43.8194 30.8204 46.265 33.5154 47.4481 36.8156C48.6311 40.1158 48.4548 43.7508 46.9578 46.9209ZM38.1406 34.6358C37.7883 34.4695 37.3844 34.4499 37.0177 34.5814C36.6511 34.7128 36.3516 34.9845 36.1853 35.3368L33.6766 40.6492C33.5103 41.0015 33.4907 41.4054 33.6221 41.7721C33.7536 42.1387 34.0253 42.4382 34.3776 42.6045L38.3619 44.486C38.7142 44.6524 39.118 44.672 39.4847 44.5405C39.8514 44.409 40.1509 44.1373 40.3172 43.7851C40.4835 43.4328 40.5031 43.0289 40.3717 42.6623C40.2402 42.2956 39.9685 41.9961 39.6162 41.8298L36.96 40.5755L38.8415 36.5911C39.0078 36.2389 39.0274 35.835 38.896 35.4683C38.7645 35.1016 38.4928 34.8022 38.1406 34.6358Z"/></g><defs><clipPath id="clip0_12_49"><rect width="47" height="47" fill="#fff" transform="translate(20.2848 0.215515) rotate(25.2777)"/></clipPath></defs></svg>